<svg xmlns="http://www.w3.org/2000/svg" aria-hidden="true" style="position:absolute;width:0;height:0;overflow:hidden">
  <defs>
    <symbol id="icon-burger" viewBox="0 0 64 32">
      <path stroke-linecap="round" stroke-linejoin="round" stroke-width="5.333" d="M4 5.111h56M4 26.889h56" />
    </symbol>
    <symbol id="icon-vector-left" viewBox="0 0 32 32">
      <path stroke-linecap="round" stroke-linejoin="round" stroke-width="4" d="m2 2 28 28" />
    </symbol>
    <symbol id="icon-vector-right" viewBox="0 0 32 32">
      <path stroke-linecap="round" stroke-linejoin="round" stroke-width="4" d="M30 2 2 30" />
    </symbol>
    <symbol id="icon-star" viewBox="0 0 32 32">
      <path
        d="m12.864 32 .556-11.723-10.243 6.377-3.176-5.27 10.878-5.346L.001 10.692l3.176-5.346 10.243 6.377L12.864 0h6.273l-.556 11.723 10.243-6.377L32 10.692l-10.878 5.346L32 21.384l-3.176 5.27-10.243-6.377L19.137 32h-6.273z" />
    </symbol>
    <symbol id="icon-n" viewBox="0 0 26 32">
      <path
        d="M6.068 13.258V32H0V.396h5.899v5.201h.421c.712-1.715 1.826-3.072 3.343-4.071C11.18.508 13.128 0 15.506 0c2.135 0 3.998.452 5.59 1.357 1.611.886 2.856 2.214 3.736 3.986.899 1.772 1.348 3.967 1.348 6.587v20.071h-6.068V12.665c0-2.28-.599-4.071-1.798-5.371-1.199-1.319-2.828-1.979-4.888-1.979-1.405 0-2.669.32-3.792.961-1.105.622-1.976 1.517-2.613 2.686s-.955 2.601-.955 4.297z" />
    </symbol>
    <symbol id="icon-o" viewBox="0 0 29 32">
      <path
        d="M14.532 32c-2.919 0-5.476-.665-7.67-1.995-2.176-1.33-3.868-3.195-5.076-5.597-1.19-2.401-1.785-5.19-1.785-8.367 0-3.214.595-6.021 1.785-8.423 1.209-2.42 2.901-4.294 5.076-5.624 2.194-1.33 4.751-1.995 7.67-1.995 2.938 0 5.495.665 7.67 1.995s3.868 3.205 5.076 5.624c1.209 2.401 1.813 5.209 1.813 8.423 0 3.177-.604 5.966-1.813 8.367s-2.901 4.267-5.076 5.597C20.026 31.335 17.47 32 14.532 32zm0-5.07c1.915 0 3.496-.499 4.742-1.496s2.166-2.318 2.761-3.962c.614-1.662.92-3.472.92-5.43 0-1.995-.307-3.823-.92-5.486-.595-1.662-1.515-2.992-2.761-3.99S16.448 5.07 14.532 5.07c-1.897 0-3.468.499-4.714 1.496-1.227.997-2.148 2.327-2.761 3.99s-.92 3.491-.92 5.486c0 1.958.307 3.768.92 5.43.614 1.644 1.534 2.965 2.761 3.962 1.246.997 2.817 1.496 4.714 1.496z" />
    </symbol>
    <symbol id="icon-s" viewBox="0 0 26 32">
      <path
        d="m25.547 7.979-5.68.942c-.365-1.034-1.048-1.986-2.047-2.854-.98-.868-2.451-1.302-4.412-1.302-1.769 0-3.249.388-4.441 1.164-1.173.757-1.759 1.727-1.759 2.909 0 1.034.394 1.875 1.182 2.521.807.646 2.086 1.164 3.835 1.552l5.161 1.108c2.941.646 5.142 1.662 6.603 3.048s2.191 3.158 2.191 5.319c0 1.866-.557 3.528-1.672 4.987-1.115 1.441-2.662 2.577-4.642 3.408-1.98.813-4.268 1.219-6.863 1.219-3.614 0-6.555-.748-8.823-2.244S.518 26.154-.001 23.439l6.026-.887c.384 1.515 1.163 2.66 2.336 3.436 1.192.776 2.73 1.164 4.614 1.164 2.038 0 3.672-.416 4.902-1.247 1.25-.831 1.874-1.838 1.874-3.02 0-1.958-1.519-3.279-4.556-3.962l-5.45-1.164c-3.018-.665-5.248-1.709-6.69-3.131C1.632 13.187.921 11.377.921 9.198c0-1.829.529-3.436 1.586-4.821C3.584 2.992 5.054 1.92 6.919 1.163c1.884-.776 4.027-1.164 6.43-1.164 3.499 0 6.238.73 8.218 2.189 1.999 1.459 3.326 3.389 3.979 5.79z" />
    </symbol>
    <symbol id="icon-r" viewBox="0 0 17 32">
      <path
        d="M0 32V.451h6.111v5.051h.351c.604-1.693 1.657-3.029 3.158-4.007 1.52-.997 3.236-1.496 5.146-1.496.39 0 .848.019 1.374.056.546.019.984.047 1.316.085v5.87c-.253-.075-.711-.151-1.374-.226a16.896 16.896 0 0 0-1.959-.113c-1.501 0-2.846.31-4.035.931-1.169.602-2.095 1.439-2.778 2.511-.663 1.053-.994 2.276-.994 3.668v19.217H.001z" />
    </symbol>
    <symbol id="icon-e" viewBox="0 0 29 32">
      <path
        d="M15.322 32c-3.143 0-5.864-.656-8.164-1.967s-4.072-3.158-5.318-5.541C.614 22.091 0 19.293 0 16.097c0-3.177.604-5.975 1.811-8.395 1.227-2.42 2.942-4.304 5.146-5.652C9.18.683 11.786 0 14.776 0c1.821 0 3.584.286 5.289.859s3.239 1.478 4.599 2.715c1.361 1.238 2.434 2.844 3.22 4.821.805 1.976 1.207 4.359 1.207 7.148v2.161H3.536v-4.516h22.336l-2.903 1.496c0-1.902-.307-3.583-.92-5.042s-1.533-2.595-2.76-3.408c-1.207-.831-2.712-1.247-4.513-1.247s-3.344.416-4.628 1.247c-1.265.831-2.233 1.93-2.903 3.297s-1.006 2.863-1.006 4.488v3.075c0 2.124.383 3.925 1.15 5.403s1.83 2.604 3.191 3.38c1.38.776 2.98 1.164 4.801 1.164 1.188 0 2.261-.166 3.22-.499.977-.332 1.821-.831 2.53-1.496s1.246-1.487 1.61-2.466l5.922 1.081c-.479 1.662-1.322 3.122-2.53 4.377s-2.731 2.235-4.571 2.937c-1.821.683-3.9 1.025-6.238 1.025z" />
    </symbol>
    <symbol id="icon-f" viewBox="0 0 15 32">
      <path
        d="M13.736 9.067v3.59H0v-3.59h13.736zM3.744 32V6.4c0-1.422.334-2.605 1.001-3.549A6.178 6.178 0 0 1 7.401.718 8.81 8.81 0 0 1 10.949 0c.972 0 1.8.075 2.482.226s1.183.28 1.502.39l-1.132 3.61A12.768 12.768 0 0 0 12.952 4c-.334-.082-.755-.123-1.263-.123-1.146 0-1.974.273-2.482.82-.508.533-.762 1.313-.762 2.338v24.964H3.743z" />
    </symbol>
    <symbol id="icon-Vector-8" viewBox="0 0 29 32">
      <path
        d="M15.322 32c-3.143 0-5.864-.656-8.164-1.967s-4.072-3.158-5.318-5.541C.614 22.091 0 19.293 0 16.097c0-3.177.604-5.975 1.811-8.395 1.227-2.42 2.942-4.304 5.146-5.652C9.18.683 11.786 0 14.776 0c1.821 0 3.584.286 5.289.859s3.239 1.478 4.599 2.715c1.361 1.238 2.434 2.844 3.22 4.821.805 1.976 1.207 4.359 1.207 7.148v2.161H3.536v-4.516h22.336l-2.903 1.496c0-1.902-.307-3.583-.92-5.042s-1.533-2.595-2.76-3.408c-1.207-.831-2.712-1.247-4.513-1.247s-3.344.416-4.628 1.247c-1.265.831-2.233 1.93-2.903 3.297s-1.006 2.863-1.006 4.488v3.075c0 2.124.383 3.925 1.15 5.403s1.83 2.604 3.191 3.38c1.38.776 2.98 1.164 4.801 1.164 1.188 0 2.261-.166 3.22-.499.977-.332 1.821-.831 2.53-1.496s1.246-1.487 1.61-2.466l5.922 1.081c-.479 1.662-1.322 3.122-2.53 4.377s-2.731 2.235-4.571 2.937c-1.821.683-3.9 1.025-6.238 1.025z" />
    </symbol>
    <symbol id="icon-j" viewBox="0 0 7 32">
      <path
        d="M2.878 7.012h3.416v19.376c.011 1.215-.2 2.24-.633 3.075s-1.065 1.464-1.898 1.887c-.833.434-1.856.651-3.068.651h-.696v-3.042h.553c.822 0 1.413-.222 1.771-.667s.543-1.085.554-1.92V7.012zM4.57 4.214c-.601 0-1.112-.206-1.534-.618s-.633-.906-.633-1.48c0-.586.211-1.085.633-1.497S3.969.001 4.57.001c.59 0 1.096.206 1.518.618.432.412.648.911.648 1.497 0 .575-.216 1.068-.648 1.48a2.096 2.096 0 0 1-1.518.618z" />
    </symbol>
    <symbol id="icon-burger" viewBox="0 0 64 32">
      <path stroke-linecap="round" stroke-linejoin="round" stroke-width="5.333" d="M4 5.111h56M4 26.889h56" />
    </symbol>
    <symbol id="icon-close" viewBox="0 0 32 32">
      <path fill="none" stroke="#fbfbfb" stroke-linecap="round" stroke-linejoin="round" stroke-width="3"
        d="M24 8 8 24M8 8l16 16" style="stroke:var(--color1, #fbfbfb)" />
    </symbol>
  </defs>
</svg>