<svg aria-hidden="true" style="position: absolute; width: 0; height: 0; overflow: hidden;" version="1.1"
     xmlns="http://www.w3.org/2000/svg" xmlns:xlink="http://www.w3.org/1999/xlink">
    <defs>
        <symbol id="icon-arrow-right" viewBox="0 0 32 32">
            <path d="M19.414 27.414l10-10c0.781-0.781 0.781-2.047 0-2.828l-10-10c-0.781-0.781-2.047-0.781-2.828 0s-0.781 2.047 0 2.828l6.586 6.586h-19.172c-1.105 0-2 0.895-2 2s0.895 2 2 2h19.172l-6.586 6.586c-0.39 0.39-0.586 0.902-0.586 1.414s0.195 1.024 0.586 1.414c0.781 0.781 2.047 0.781 2.828 0z"></path>
        </symbol>
        <symbol id="icon-arrow-left" viewBox="0 0 32 32">
            <path d="M12.586 27.414l-10-10c-0.781-0.781-0.781-2.047 0-2.828l10-10c0.781-0.781 2.047-0.781 2.828 0s0.781 2.047 0 2.828l-6.586 6.586h19.172c1.105 0 2 0.895 2 2s-0.895 2-2 2h-19.172l6.586 6.586c0.39 0.39 0.586 0.902 0.586 1.414s-0.195 1.024-0.586 1.414c-0.781 0.781-2.047 0.781-2.828 0z"></path>
        </symbol>
        <symbol id="icon-up" viewBox="0 0 32 32">
            <path d="M23 14c-0.278 0-0.555-0.116-0.753-0.341l-6.247-7.14-6.247 7.14c-0.364 0.416-0.995 0.458-1.411 0.094s-0.458-0.995-0.094-1.411l7-8c0.19-0.217 0.464-0.341 0.753-0.341s0.563 0.125 0.753 0.341l7 8c0.364 0.416 0.322 1.047-0.094 1.411-0.19 0.166-0.424 0.247-0.658 0.247z"></path>
        </symbol>
        <symbol id="icon-brush" viewBox="0 0 32 32">
            <path stroke-linecap="round" stroke-linejoin="round" stroke-width="2.667"
                  d="M17.037 20 12 14.963M2.667 29.333c2.667 0 6.144.456 7.966-1.367a4.668 4.668 0 0 0-6.6-6.6c-1.823 1.823 0 5.3-1.367 7.966z"/>
            <path stroke-linecap="round" stroke-linejoin="round" stroke-width="2.667"
                  d="M10.667 21.333c-.655-.655-.983-.983-1.168-1.326a2.668 2.668 0 0 1 .05-2.623c.198-.336.538-.651 1.218-1.28L23.924 3.921a2.94 2.94 0 0 1 4.153 4.153L15.894 21.231c-.63.68-.944 1.02-1.28 1.218-.805.475-1.8.495-2.623.051-.343-.185-.671-.513-1.326-1.168z"/>
        </symbol>
        <symbol id="icon-hourglass" viewBox="0 0 32 32">
            <path stroke-linecap="round" stroke-linejoin="round" stroke-width="2.667"
                  d="M24.217 2.667H7.783c-.617 0-1.117.5-1.117 1.117a13.4 13.4 0 0 0 3.925 9.475l1.626 1.626c.161.161.242.242.3.32a1.335 1.335 0 0 1 0 1.594c-.058.077-.139.158-.3.32l-1.626 1.626a13.4 13.4 0 0 0-3.925 9.475c0 .617.5 1.117 1.117 1.117h16.434c.617 0 1.117-.5 1.117-1.117a13.4 13.4 0 0 0-3.925-9.475l-1.626-1.626c-.161-.161-.242-.242-.3-.32a1.332 1.332 0 0 1 0-1.594c.058-.077.139-.158.3-.32l1.626-1.626a13.4 13.4 0 0 0 3.925-9.475c0-.617-.5-1.117-1.117-1.117z"/>
        </symbol>
        <symbol id="icon-message" viewBox="0 0 32 32">
            <path stroke-linecap="round" stroke-linejoin="round" stroke-width="2.667"
                  d="M8.126 14.972A10.66 10.66 0 0 1 8 13.334C8 7.443 12.807 2.667 18.737 2.667s10.737 4.776 10.737 10.667c0 1.331-.245 2.605-.693 3.779-.093.244-.14.366-.161.461s-.029.161-.031.257c-.002.097.011.205.037.42l.537 4.36c.058.472.087.708.009.88a.667.667 0 0 1-.343.335c-.173.075-.409.04-.879-.029l-4.247-.623a2.965 2.965 0 0 0-.434-.048c-.1.001-.169.008-.267.028s-.225.068-.477.163a10.78 10.78 0 0 1-3.787.683c-.558 0-1.105-.042-1.64-.124m-6.923 5.457c3.953 0 7.158-3.283 7.158-7.333s-3.205-7.333-7.158-7.333c-3.953 0-7.158 3.283-7.158 7.333 0 .814.13 1.597.369 2.329.101.309.152.464.168.57.017.11.02.172.014.284-.006.107-.033.227-.086.469l-.815 3.682 3.993-.545c.218-.03.327-.045.422-.044.1.001.153.006.252.026.093.019.232.067.51.165a6.994 6.994 0 0 0 2.332.398z"/>
        </symbol>
        <symbol id="icon-user" viewBox="0 0 32 32">
            <path stroke-linecap="round" stroke-linejoin="round" stroke-width="2.667"
                  d="M26.667 28c0-1.861 0-2.791-.23-3.548a5.333 5.333 0 0 0-3.556-3.556c-.757-.23-1.687-.23-3.548-.23h-6.667c-1.861 0-2.791 0-3.548.23a5.335 5.335 0 0 0-3.556 3.556c-.23.757-.23 1.687-.23 3.548M16 16a6 6 0 1 0 0-12 6 6 0 0 0 0 12z"/>
        </symbol>
        <symbol id="icon-menu" viewBox="0 0 36 32">
            <path d="M1.2 4a2.4 2.4 0 0 1 2.4-2.4h28.8a2.4 2.4 0 0 1 0 4.8H3.6A2.4 2.4 0 0 1 1.2 4zm0 12a2.4 2.4 0 0 1 2.4-2.4h28.8a2.4 2.4 0 0 1 0 4.8H3.6A2.4 2.4 0 0 1 1.2 16zm0 12a2.4 2.4 0 0 1 2.4-2.4h28.8a2.4 2.4 0 0 1 0 4.8H3.6A2.4 2.4 0 0 1 1.2 28z"/>
        </symbol>
    </defs>
</svg>
